Patient4_TMGait_0pt6_01_right_09_EMG.mot
version=1
nRows=30
nColumns=33
inDegrees=no
endheader
time	1LAddLong	2LGlutMax	3LGlutMed	4LIliopsoas	5LSemiMemb	6LBicFemLong	7LRecFem	8LVastMed	9LVastLat	10LGasMed	11LTibAnt	12lTibPost	13LPeroneusLong	14LSol	15LExtDigLong	16LFlexDigLong	17RAddLong	18RGlutMax	19RGlutMed	20RIliopsoas	21RSemiMemb	22RBicFemLong	23RRecFem	24RVastMed	25RVastLat	26RGasMed	27RTibAnt	28RTibPost	29RPeroneusLong	30RSol	31RExtDigLong	32RFlexDigLong
11.62	0.000763	0.1297	0.16449	-0.005188	0.010071	-0.009918	0.26382	-0.031738	-0.1236	-0.17517	-0.031433	-0.007477	0.094604	0.08728	0.29739	-0.13596	-0.028381	-0.30334	-0.13687	0.17212	0.015259	0.031738	-0.13184	-0.061493	0.0177	0.002594	-0.037384	-0.006256	-0.1796	-0.10757	-0.004883	0.001526
11.621	0.003357	0.13473	0.16312	0.01236	0.00061	0.05127	0.29251	0.028534	-0.085754	-0.40634	-0.049133	0.009155	0.091553	0.23575	-0.084076	-0.019836	-0.054169	-0.25497	-0.22888	0.13031	-0.016632	0.014496	-0.17914	-0.050507	0.011597	-0.003204	-0.026703	-0.008698	0.0354	-0.050049	-0.001831	-0.004578
11.622	0.001831	0.12375	0.10574	-0.003204	-0.000916	0.016022	0.29419	-0.010681	-0.10208	-0.35416	-0.22415	0.001068	0.10132	0.20844	-0.31525	0.032501	-0.02594	-0.2829	-0.15137	0.080566	-0.029755	0.06485	-0.10971	-0.074768	0.011749	-0.004272	-0.19455	-0.002899	-0.054016	-0.044861	-0.000305	-0.003052
11.623	-0.003357	0.16159	0.060883	0.007782	-0.003967	0.003815	0.26489	-0.012665	-0.12497	-0.49332	-0.12833	0.005188	0.081024	0.32608	-0.32562	0.037689	-0.014801	-0.24185	0.070801	0.025177	-0.047302	0.10376	-0.056458	-0.049591	0.00351	-0.00824	-0.060577	-0.005646	-0.17471	-0.075531	-0.002136	-0.018921
11.624	-0.002136	0.15167	0.025482	0.013275	0.008392	-0.00885	0.21881	-0.010529	-0.1326	-0.45136	-0.046539	-0.000153	0.048828	0.30258	-0.22125	-0.005188	-0.016022	-0.2327	0.43076	-0.005951	-0.097809	0.13321	-0.023956	-0.059357	0.009613	-0.012054	-0.16937	-0.006104	-0.1207	-0.049438	-0.004883	-0.017548
11.625	0.005798	0.16022	-0.016327	0.012817	0.000153	0.009003	0.02243	0.007477	-0.058899	-0.39002	-0.1329	-0.012665	0.1442	0.16876	-0.46448	-0.031891	0.016632	-0.24262	0.22354	-0.021362	-0.17777	0.10544	-0.00885	-0.031128	0.008698	-0.002899	-0.094757	-0.002899	-0.020752	-0.097961	-0.00885	-0.015259
11.626	0.020599	0.14557	-0.029907	0.001526	0.004883	0.030823	-0.20981	0.013123	-0.065765	-0.31586	-0.11444	0.10544	0.02594	-0.19196	-0.68131	-0.022736	0.087891	-0.3009	0.11688	-0.056	-0.14755	0.063477	-0.048828	-0.095367	0.007019	-0.010223	0.29617	-0.00351	0.018616	-0.16251	0.000153	-0.024567
11.627	0.015869	0.15976	-0.035706	0.009766	0.013275	0.088959	-0.27252	0.019989	0.05722	-0.12833	-0.045929	0.11734	-0.075073	-0.29938	-0.33157	-0.037384	0.14557	-0.28473	-0.14816	-0.05722	-0.12863	0.080261	-0.018616	-0.12528	0.0177	-0.011292	-0.15747	-0.002136	-0.10574	-0.048676	0.000153	-0.027618
11.628	0.019836	0.13001	-0.1059	0.009155	0.007019	0.10986	-0.1593	0.013885	0.25467	0.012817	-0.058899	-0.25009	-0.11093	-0.24246	-0.23682	-0.02594	0.12207	-0.33569	-0.3363	-0.006409	0.018005	0.036469	-0.01236	-0.14832	0.009308	-0.000305	-0.39398	-0.003052	-0.1445	0.045166	-0.007172	-0.022583
11.629	0.012512	0.15045	-0.12695	0.009918	0.009308	0.092468	0.037537	-0.005188	0.34363	-0.029144	-0.030212	0.041199	-0.036011	-0.20294	-0.21957	-0.010376	0.1088	-0.32135	-0.42007	0.074768	0.038605	0.007172	0.00412	-0.15243	0.018616	-0.007324	-0.51941	-0.00473	-0.17456	0.024261	-0.003052	-0.018768
11.63	0.006409	0.20279	-0.13657	0.006714	0.005035	0.092163	0.1561	-0.007172	0.18494	0.081024	-0.025177	0.050354	0.041809	-0.23636	-0.12695	0.009308	0.11429	-0.25482	-0.054779	0.094604	-0.15305	-0.06012	0	-0.20615	0.023956	-0.009003	-0.72983	-0.002136	0.036926	-0.032959	0.001678	-0.006409
11.631	0.009308	0.22934	-0.16525	0.014191	0.00473	0.073547	0.15991	-0.005646	0.10803	0.093994	-0.12192	0.02594	0.086365	-0.13947	0.011292	0.000458	0.08667	-0.27191	0.18738	0.007324	-0.30579	-0.098114	0.029907	-0.21561	0.010376	-0.008392	-0.6369	-0.00061	0.14069	-0.12558	-0.001068	0.002136
11.632	0.005341	0.2803	-0.086517	0.013123	0.00412	-0.045166	0.17487	-0.006561	0.11627	0.095825	-0.036011	-0.006714	-0.020142	-0.081329	0.11185	-0.010681	-0.012817	-0.24643	0.47913	-0.016174	-0.21866	-0.020752	-0.017853	-0.13428	0.032806	0.001984	-0.26093	-0.004883	0.30182	-0.15015	0.001984	-0.001373
11.633	0.005341	0.36941	-0.028381	0.013428	0.003204	-0.15961	0.1503	-0.007324	-0.011749	-0.10193	0.063019	-0.097656	-0.014648	-0.053406	0.33875	-0.041199	-0.12482	-0.30762	0.45807	-0.004272	0.35934	0.078888	-0.087738	0.075378	0.033569	0.003052	0.009308	-0.003357	0.44861	-0.16083	-0.003967	0.00946
11.634	0.000305	0.495	0.063782	0.019073	-0.007477	-0.16342	0.15305	-0.005035	-0.059509	-0.31754	0.15488	-0.072327	-0.016174	0.14816	0.40115	-0.01297	-0.14053	-0.31509	-0.080872	0.031128	0.27664	0.070496	-0.084534	0.21469	0.055847	0.00473	0.19928	-0.003357	0.1738	-0.20172	-0.004883	0.000916
11.635	0.009155	0.61279	0.14374	0.011597	0.00824	-0.15564	0.11475	0.005493	0.036926	-0.36728	0.11383	0.12329	-0.000305	0.084991	0.28625	-0.13947	-0.12314	-0.27725	0.028839	0.032196	0.28671	0.18677	-0.091248	0.21011	0.063171	-0.007782	0.71335	-0.007782	-0.20737	0.030212	-0.003052	0.002747
11.636	0.00946	0.73135	0.10178	0.012817	0.016937	-0.085907	0.15396	0.031891	0.001526	-0.354	0.066376	0.14404	0.084534	0.053864	0.50384	0.14465	-0.066071	-0.24689	-0.001373	-0.011902	0.12711	0.10986	-0.084686	0.082245	0.053101	-0.020599	0.90591	-0.008392	-0.22995	0.15884	-0.002441	0.00351
11.637	0.012512	0.82947	-0.018005	0.006561	0.019531	-0.025787	0.12787	0.031128	-0.10696	-0.20905	0.11276	-0.04776	0.15411	0.05249	0.20126	-1.0876	0.003204	-0.23239	-0.069885	-0.033264	-0.01358	0.039673	-0.084686	0.016785	0.033264	-0.016174	0.46539	-0.002899	-0.079193	0.059357	-0.00412	0.007019
11.638	0.018158	0.93887	-0.062103	0.023193	0.019989	-0.021057	0.04776	0.02182	-0.056763	0.072937	0.17487	-0.061951	0.085907	0.35339	0.27832	0.22629	0.038452	-0.21255	-0.15289	-0.036011	-0.03479	0.033875	-0.03952	-0.016479	0.007477	-0.018158	0.10452	-0.003357	-0.037537	0.15579	-0.002441	0.012512
11.639	0.015564	1.0469	-0.014801	0.014954	0.025482	0.023499	-0.027618	-0.011902	0.12146	0.11108	0.21729	-0.1059	0.029755	0.070038	0.27832	0.849	0.032806	-0.20447	-0.088959	-0.11643	0.007935	0.027924	-0.020599	-0.088043	0.015717	-0.013123	-0.1918	-0.013123	-0.042267	0.1889	-0.005341	0.008087
11.64	0.012207	1.0835	0.055237	0.010223	0.023041	0.050507	0.033875	-0.007324	0.037231	0.052185	-0.1088	-0.20187	-0.01297	-0.40405	0.064545	0.34225	0.018158	-0.17624	0.016174	-0.22812	-0.00061	0.003204	-0.050201	-0.049591	0.010223	-0.013123	-0.18356	-0.007019	-0.019989	0.10727	-0.00351	0.00885
11.641	-0.005035	0.99045	0.056	-0.009155	0.013733	-0.13519	0.14999	-0.018463	-0.1738	0.020752	-0.13153	0.34195	-0.0354	-0.45792	-0.10407	-0.36179	-0.051422	-0.18616	0.10162	-0.1976	0.026855	0.004578	-0.067902	-0.088959	0.024414	-0.016937	-0.10559	-0.007935	-0.049896	0.088959	-0.001068	0.002441
11.642	0.005951	0.61264	0.019684	0.000305	0.018768	-0.086517	0.15091	-0.017242	-0.14801	-0.032043	-0.069427	-0.037079	-0.075226	-0.26993	-0.31418	0.84137	-0.095062	-0.16342	-0.02533	-0.057068	0.018311	0.007935	-0.070343	-0.068207	0.012054	-0.013733	-0.087891	-0.004883	-0.079498	0.12512	0.000916	0.00351
11.643	0.003815	0.29511	0.066528	-0.002289	-0.006561	-0.036163	0.050964	-0.010223	-0.12054	-0.047455	-0.040131	-0.020447	0.020752	-0.22751	0.12833	-0.62912	-0.12116	-0.13977	-0.23697	0.14358	-0.001068	-0.00946	-0.095367	-0.07843	0.016937	0.006866	-0.054932	-0.00885	0.085602	0.14694	0.000305	0.001984
11.644	0.004272	0.052948	0.066528	0.008392	-0.019836	-0.005035	0.001984	-0.006714	-0.094757	0.023804	-0.050812	-0.007019	0.018005	0.14862	0.32516	0.24277	-0.12009	-0.17487	-0.12741	0.20462	-0.074158	-0.037689	-0.085449	-0.087738	0.014648	0.019073	-0.006409	-0.007629	0.11429	0.12024	-0.003052	0.001831
11.645	0.006866	-0.048981	0.058136	0.005646	0.016022	0.002899	-0.008392	-0.007477	-0.063171	0.06012	-0.023956	-0.042267	-0.001221	0.51514	-0.51849	0.28778	-0.088501	-0.13184	0.008698	0.036926	-0.059052	-0.086365	-0.094604	-0.033722	-0.007477	0.032654	0.099945	-0.002136	-0.048981	0.093079	0.001373	-0.003815
11.646	0.003967	-0.15915	0.03952	0.018005	0.012665	0.005188	0.028229	-0.016785	-0.047913	0.062256	0.075073	-0.03067	0.006561	0.54627	-0.52017	-0.050354	-0.00946	-0.1741	-0.003204	-0.14389	-0.006409	-0.11841	-0.067749	-0.077362	0.009003	0.055237	0.16113	-0.004578	-0.17929	0.058136	0.001068	0.001831
11.647	-0.009766	-0.23834	0.089417	0.001373	0.010376	0.016022	0.069427	-0.010681	-0.046692	0.035553	-0.11292	-0.041199	0.052643	0.26825	-0.65063	0.13886	0.042725	-0.13138	0.39536	-0.097961	-0.010834	-0.12909	-0.069733	-0.039063	-0.005493	0.060425	-0.067596	-0.003357	-0.18112	0.079346	-0.002594	0.00473
11.648	0.005798	-0.3096	0.17258	-0.009613	0.002594	0.049744	0.085907	-0.006561	-0.029144	0.057678	-0.14053	-0.070343	0.041504	-0.071259	-0.083466	-0.003967	0.077515	-0.19226	0.65323	0.13077	-0.020599	-0.095215	-0.081635	-0.025177	0.006409	0.063934	-0.13382	-0.005341	-0.13763	0.064697	-0.004578	-0.001068
11.649	0.007477	-0.31433	0.16861	0.011597	0.018616	0.07782	0.089874	-0.007172	0.049591	0.16892	-0.009308	-0.007324	0.064392	-0.32211	0.41	-0.18845	0.087433	-0.20004	0.37231	0.23743	-0.068054	-0.095062	-0.049438	-0.007935	0.001984	0.068359	-0.070648	-0.003204	-0.045319	0.036011	-0.001984	0.007477
